# xmcd
#
# Track frame offsets:
#	150
#	15194
#	27109
#	39685
#	53646
#	73227
#	87869
#	103830
#	118286
#	132132
#	143850
#	158255
#	170330
#	181712
#	192982
#	206882
#	220794
#	231113
#
# Disc length: 3257 seconds
#
# Revision: 1
# Processed by: cddbd v1.5.2PL0 Copyright (c) Steve Scherf et al.
# Submitted via: audiograbber 1.83.01
#
DISCID=f20cb712
DTITLE=John Lee Hooker - Masters of Music [Disc1]
DYEAR=1900
DGENRE=
TTITLE0=Ramblin by Myself
TTITLE1=Wobbling Baby
TTITLE2=Sailing Blues
TTITLE3=Worried Life Blues
TTITLE4=The Journey
TTITLE5=609 Boogie
TTITLE6=Good Business
TTITLE7=Woman in my Life
TTITLE8=I don't Want your Money
TTITLE9=My Baby Put me Down
TTITLE10=Blues for Big Town
TTITLE11=Guitar lovin Man
TTITLE12=Misbelieving Baby
TTITLE13=Please don't Go
TTITLE14=Louise
TTITLE15=Highway Blues
TTITLE16=Feed her all Night
TTITLE17=Union Station Blues
EXTD=
EXTT0=
EXTT1=
EXTT2=
EXTT3=
EXTT4=
EXTT5=
EXTT6=
EXTT7=
EXTT8=
EXTT9=
EXTT10=
EXTT11=
EXTT12=
EXTT13=
EXTT14=
EXTT15=
EXTT16=
EXTT17=
PLAYORDER=
